<?xml version="1.0" encoding="UTF-8" standalone="no"?>
<!-- Created with Inkscape (http://www.inkscape.org/) -->

<svg
   xmlns:dc="http://purl.org/dc/elements/1.1/"
   xmlns:cc="http://creativecommons.org/ns#"
   xmlns:rdf="http://www.w3.org/1999/02/22-rdf-syntax-ns#"
   xmlns:svg="http://www.w3.org/2000/svg"
   xmlns="http://www.w3.org/2000/svg"
   xmlns:sodipodi="http://sodipodi.sourceforge.net/DTD/sodipodi-0.dtd"
   xmlns:inkscape="http://www.inkscape.org/namespaces/inkscape"
   width="1167.9141"
   height="960.8053"
   id="svg2"
   version="1.1"
   inkscape:version="0.47 r22583"
   sodipodi:docname="logo.svg"
   inkscape:export-filename="/home/manucornet/awty/images/logo.png"
   inkscape:export-xdpi="7.71"
   inkscape:export-ydpi="7.71">
  <defs
     id="defs4">
    <inkscape:perspective
       sodipodi:type="inkscape:persp3d"
       inkscape:vp_x="0 : 526.18109 : 1"
       inkscape:vp_y="0 : 1000 : 0"
       inkscape:vp_z="744.09448 : 526.18109 : 1"
       inkscape:persp3d-origin="372.04724 : 350.78739 : 1"
       id="perspective10" />
    <inkscape:perspective
       sodipodi:type="inkscape:persp3d"
       inkscape:vp_x="0 : 0.5 : 1"
       inkscape:vp_y="0 : 1000 : 0"
       inkscape:vp_z="1 : 0.5 : 1"
       inkscape:persp3d-origin="0.5 : 0.33333333 : 1"
       id="perspective3689" />
    <inkscape:perspective
       sodipodi:type="inkscape:persp3d"
       inkscape:vp_x="0 : 0.5 : 1"
       inkscape:vp_y="0 : 1000 : 0"
       inkscape:vp_z="1 : 0.5 : 1"
       inkscape:persp3d-origin="0.5 : 0.33333333 : 1"
       id="perspective2895" />
    <inkscape:perspective
       id="perspective10-3"
       inkscape:persp3d-origin="372.04724 : 350.78739 : 1"
       inkscape:vp_z="744.09448 : 526.18109 : 1"
       inkscape:vp_y="0 : 1000 : 0"
       inkscape:vp_x="0 : 526.18109 : 1"
       sodipodi:type="inkscape:persp3d" />
  </defs>
  <sodipodi:namedview
     id="base"
     pagecolor="#ffffff"
     bordercolor="#666666"
     borderopacity="1.0"
     inkscape:pageopacity="0.0"
     inkscape:pageshadow="2"
     inkscape:zoom="0.35"
     inkscape:cx="621.09987"
     inkscape:cy="471.83121"
     inkscape:document-units="px"
     inkscape:current-layer="layer1"
     showgrid="false"
     inkscape:window-width="1078"
     inkscape:window-height="889"
     inkscape:window-x="36"
     inkscape:window-y="422"
     inkscape:window-maximized="0" />
  <metadata
     id="metadata7">
    <rdf:RDF>
      <cc:Work
         rdf:about="">
        <dc:format>image/svg+xml</dc:format>
        <dc:type
           rdf:resource="http://purl.org/dc/dcmitype/StillImage" />
        <dc:title></dc:title>
      </cc:Work>
    </rdf:RDF>
  </metadata>
  <g
     inkscape:label="Layer 1"
     inkscape:groupmode="layer"
     id="layer1"
     transform="translate(246.09987,-43.388127)">
    <g
       transform="matrix(1.2008627,0,0,1.2008627,-261.58917,-142.31678)"
       id="layer1-9"
       inkscape:label="Layer 1">
      <path
         id="path2901"
         d="m 259.58598,171.64502 c -6.40695,0.0767 -18.78125,2.34375 -32.53125,16.09375 -20,20 -30,44.28125 -30,44.28125 l -84.3125,198.5625 c 0,0 -21.424116,-0.009 -44.281256,18.5625 -22.857143,18.57143 -37.125,55.71875 -37.125,55.71875 l -1.4375,277.15625 72.843756,0 0,84.28125 c 0,0 10.00893,70 71.4375,70 61.42858,0 77.15625,-60 77.15625,-60 l 0,-95.71875 491.40625,0 0,101.4375 c 0,0 1.43303,55.71875 75.71875,55.71875 74.28571,0 75.71875,-62.875 75.71875,-62.875 l 0,-92.84375 74.28125,0 0,-267.15625 c 0,0 -2.13393,-37.85267 -28.5625,-64.28125 -26.42857,-26.42857 -55.71875,-22.84375 -55.71875,-22.84375 l -91.4375,-212.875 c 0,0 -4.26339,-8.57589 -21.40625,-25.71875 -17.14286,-17.14285 -41.4375,-17.125 -41.4375,-17.125 l -465.71875,0 c 0,0 -1.6815,-0.40988 -4.59375,-0.375 z m 11.75,64.65625 451.40625,0 91.4375,188.5625 -627.125,0 84.28125,-188.5625 z m -95.71875,277.15625 c 32.34811,0 58.5625,26.21439 58.5625,58.5625 0,32.34811 -26.21439,58.5625 -58.5625,58.5625 -32.34811,0 -58.5625,-26.21439 -58.5625,-58.5625 0,-32.34811 26.21439,-58.5625 58.5625,-58.5625 z m 640,0 c 32.34811,0 58.5625,26.21439 58.5625,58.5625 0,32.34811 -26.21439,58.5625 -58.5625,58.5625 -32.34811,0 -58.5625,-26.21439 -58.5625,-58.5625 0,-32.34811 26.21439,-58.5625 58.5625,-58.5625 z"
         style="fill:#a60000;fill-opacity:1;stroke:#000000;stroke-width:34;stroke-linecap:butt;stroke-linejoin:round;stroke-miterlimit:0;stroke-opacity:0.91855205;stroke-dasharray:none" />
    </g>
    <text
       xml:space="preserve"
       style="font-size:252.51472473px;font-style:normal;font-variant:normal;font-weight:normal;font-stretch:normal;text-align:start;line-height:100%;writing-mode:lr-tb;text-anchor:start;fill:#ffffff;fill-opacity:1;stroke:none;font-family:Bad Script;-inkscape-font-specification:Bad Script"
       x="54.167137"
       y="651.05597"
       id="text2816"
       sodipodi:linespacing="100%"><tspan
         sodipodi:role="line"
         id="tspan2818"
         x="54.167137"
         y="651.05597">awty?</tspan></text>
  </g>
</svg>
